<svg version="1.1" id="OpenSpeedtest"
	xmlns="http://www.w3.org/2000/svg"
	xmlns:xlink="http://www.w3.org/1999/xlink"
    class="openSpeedtestApp">
	<symbol id="logo" viewBox="0 0 1709 1354">
		<mask id="mask0_1101_62817" style="mask-type:alpha" maskUnits="userSpaceOnUse" x="0" y="0" width="1709" height="1354">
			<rect width="1709" height="1354" fill="#D9D9D9"/>
		</mask>
		<g mask="url(#mask0_1101_62817)">
			<path d="M1292 713.879L1386.72 384.844C1388.95 377.125 1381.2 369.82 1370.81 369.82H1200.37L1159.65 628.505L1118.93 369.82H948.489C938.097 369.82 930.35 377.125 932.583 384.844L1027.3 713.879L928.2 1078.15C926.105 1085.81 933.824 1093.03 944.161 1093.03H1115.82L1159.68 820.507L1203.54 1093.03H1375.19C1385.5 1093.03 1393.25 1085.84 1391.16 1078.15L1292.05 713.879H1292Z" fill="#FF5A02"/>
			<path d="M228.115 252C356.217 252 431.089 304.377 431.089 407.255V940.422C431.089 1030.51 365.59 1093.06 228.115 1093.06H16.2919C7.30519 1093.06 0 1087.52 0 1080.68V264.377C0 257.541 7.30519 252 16.2919 252H228.115ZM243.387 399.013C243.387 379.551 232.553 369.82 210.858 369.82H184.752V975.184H209.866C232.029 975.184 243.359 965.453 243.359 946.018V399.013H243.387Z" fill="#FF5A02"/>
			<path d="M899.144 516.557V701.723C899.144 708.559 891.839 714.1 882.852 714.1H669.072V965.867C669.072 985.329 679.409 995.06 699.616 995.06C716.873 995.06 725.722 986.459 725.722 969.616V757.132H882.852C891.839 757.132 899.144 762.673 899.144 769.509V968.127C899.144 1009.67 881.887 1041.84 846.932 1065.38C811.95 1088.95 762.688 1100.56 699.616 1100.56C563.629 1100.56 489.723 1046.31 489.723 947.921V536.405C489.723 418.944 559.191 363.204 698.623 363.204C838.056 363.204 899.64 414.45 899.144 516.585M669.072 494.091V623.544H724.757V494.091C724.757 474.629 715.88 464.897 698.651 464.897C679.437 464.897 669.596 474.629 669.099 494.091" fill="#FF5A02"/>
			<path d="M1692.9 369.903L1614.86 369.82V266.417C1614.86 259.581 1607.55 254.04 1598.57 254.04H1464.01L1430.46 368.497C1430.22 369.351 1430.08 370.261 1430.08 371.143V962.751C1430.08 1004.29 1447.33 1036.46 1482.32 1060.01C1515.59 1082.45 1561.87 1094.02 1620.59 1095.1C1622.33 1095.15 1692.9 1095.1 1692.9 1095.1C1701.89 1095.1 1709.19 1089.64 1709.19 1082.8V977.334H1648.38C1626.22 977.334 1614.89 967.603 1614.89 948.141V487.254L1709.19 487.337V382.28C1709.19 375.444 1701.89 369.903 1692.9 369.903Z" fill="#FF5A02"/>
			<path d="M1203.79 1153.76H1240.37C1257.04 1153.76 1269.15 1156.13 1276.67 1160.87C1284.2 1165.61 1287.97 1173.17 1287.97 1183.51C1287.97 1190.53 1286.32 1196.3 1283.04 1200.79C1279.76 1205.28 1275.35 1208.01 1269.89 1208.92V1209.72C1277.33 1211.38 1282.71 1214.49 1286.02 1219.04C1289.32 1223.59 1290.95 1229.65 1290.95 1237.21C1290.95 1247.93 1287.09 1256.28 1279.32 1262.29C1271.54 1268.3 1261.04 1271.31 1247.75 1271.31H1203.76V1153.73L1203.79 1153.76ZM1228.71 1200.32H1243.18C1249.93 1200.32 1254.84 1199.27 1257.84 1197.18C1260.85 1195.08 1262.39 1191.64 1262.39 1186.81C1262.39 1182.32 1260.74 1179.09 1257.46 1177.11C1254.18 1175.13 1248.94 1174.19 1241.83 1174.19H1228.73V1200.32H1228.71ZM1228.71 1220.11V1250.74H1244.94C1251.81 1250.74 1256.88 1249.42 1260.13 1246.8C1263.38 1244.18 1265.04 1240.15 1265.04 1234.72C1265.04 1224.97 1258.06 1220.09 1244.14 1220.09H1228.71V1220.11Z" fill="#FF5A02"/>
			<path d="M1294.7 1181.41H1321.55L1338.53 1232C1339.99 1236.38 1340.98 1241.59 1341.51 1247.6H1342C1342.58 1242.08 1343.74 1236.87 1345.45 1232L1362.1 1181.41H1388.4L1350.36 1282.8C1346.88 1292.17 1341.89 1299.2 1335.44 1303.86C1328.99 1308.52 1321.44 1310.86 1312.81 1310.86C1308.57 1310.86 1304.43 1310.42 1300.35 1309.49V1290.02C1303.3 1290.71 1306.53 1291.07 1310 1291.07C1314.35 1291.07 1318.13 1289.75 1321.38 1287.1C1324.64 1284.45 1327.17 1280.43 1328.99 1275.08L1330.45 1270.67L1294.75 1181.41H1294.7Z" fill="#FF5A02"/>
			<path d="M1436.09 1271.33V1153.76H1461.01V1271.33H1436.09Z" fill="#FF5A02"/>
			<path d="M1510.58 1226.21V1271.31H1485.66V1153.73H1519.92C1535.88 1153.73 1547.71 1156.63 1555.37 1162.47C1563.04 1168.32 1566.87 1177.11 1566.87 1188.96C1566.87 1195.88 1564.97 1202.03 1561.16 1207.41C1557.36 1212.78 1551.95 1217.03 1545.01 1220.06C1562.71 1246.5 1574.23 1263.56 1579.58 1271.28H1551.93L1523.86 1226.18H1510.6L1510.58 1226.21ZM1510.58 1205.94H1518.63C1526.51 1205.94 1532.33 1204.62 1536.08 1202C1539.82 1199.38 1541.7 1195.25 1541.7 1189.63C1541.7 1184 1539.77 1180.09 1535.94 1177.72C1532.11 1175.35 1526.18 1174.19 1518.13 1174.19H1510.58V1205.94Z" fill="#FF5A02"/>
			<path d="M1589.45 1271.33V1153.76H1614.37V1271.33H1589.45Z" fill="#FF5A02"/>
			<path d="M1708.42 1238.67C1708.42 1249.28 1704.59 1257.63 1696.95 1263.75C1689.32 1269.87 1678.68 1272.93 1665.06 1272.93C1652.52 1272.93 1641.41 1270.56 1631.76 1265.85V1242.69C1639.7 1246.22 1646.4 1248.73 1651.91 1250.16C1657.42 1251.6 1662.44 1252.34 1666.99 1252.34C1672.45 1252.34 1676.64 1251.29 1679.59 1249.2C1682.54 1247.1 1683.97 1243.99 1683.97 1239.88C1683.97 1237.56 1683.34 1235.52 1682.04 1233.73C1680.74 1231.94 1678.87 1230.2 1676.36 1228.55C1673.85 1226.9 1668.78 1224.22 1661.12 1220.58C1653.92 1217.19 1648.55 1213.97 1644.96 1210.85C1641.38 1207.74 1638.51 1204.13 1636.36 1199.99C1634.21 1195.86 1633.14 1191.03 1633.14 1185.52C1633.14 1175.13 1636.66 1166.94 1643.72 1160.98C1650.78 1155.03 1660.51 1152.05 1672.94 1152.05C1679.06 1152.05 1684.88 1152.77 1690.42 1154.23C1695.96 1155.69 1701.78 1157.7 1707.84 1160.35L1699.79 1179.73C1693.51 1177.17 1688.32 1175.35 1684.24 1174.35C1680.16 1173.36 1676.11 1172.84 1672.14 1172.84C1667.43 1172.84 1663.82 1173.94 1661.28 1176.14C1658.75 1178.35 1657.51 1181.22 1657.51 1184.75C1657.51 1186.95 1658.03 1188.85 1659.02 1190.51C1660.01 1192.16 1661.67 1193.73 1663.87 1195.25C1666.08 1196.77 1671.37 1199.52 1679.67 1203.49C1690.67 1208.76 1698.19 1214.02 1702.27 1219.29C1706.35 1224.55 1708.39 1231.03 1708.39 1238.69L1708.42 1238.67Z" fill="#FF5A02"/>
		</g>
	</symbol>
	<symbol id="mainGaugebg" viewBox="0 0 295.93 270.18">
		<path fill="none" d="M64.32,256.41a137,137,0,1,1,192.09-24.8l-.07.09a134.45,134.45,0,0,1-24.71,24.71" />
	</symbol>
	<symbol id="mainGaugeBlue" viewBox="0 0 295.93 270.18">
		<path fill="none" d="M64.32,256.41a137,137,0,1,1,192.09-24.8l-.07.09a134.45,134.45,0,0,1-24.71,24.71" />
	</symbol>
	<symbol id="mainGaugeWhite" viewBox="0 0 295.93 270.18">
		<path fill="none" d="M64.32,256.41a137,137,0,1,1,192.09-24.8l-.07.09a134.45,134.45,0,0,1-24.71,24.71" />
	</symbol>
	<symbol id="oDoMeter" viewBox="0 0 295.93 270.18">
		<text transform="translate(76.34 264.28) scale(0.9 1)">0</text>
		<text transform="translate(23.81 164.6) scale(0.9 1)">.5</text>
		<text transform="translate(50.01 80.11) scale(0.9 1)">1</text>
		<text transform="translate(140.58 36.04) scale(0.9 1)">10</text>
		<text transform="translate(220.43 79.11) scale(0.9 1)">100</text>
		<text transform="translate(246.71 164.6) scale(0.9 1)">500</text>
		<text id="oDoTopSpeed" class="oDoTop-Speed" transform="translate(220.71 265.99) scale(0.9 1)">1000+</text>
		<text id="oDoLiveSpeed" class="oDoLive-Speed" transform="translate(150 150) scale(1 1)">...</text>
		<text id="oDoLiveStatus" class="oDoLive-Status" transform="translate(151 170) scale(1 1)"></text>
	</symbol>
	<symbol id="progressBar" viewBox="0 0 293.53 18.38">
		<defs>
			<symbol id="personLeft" class="uiBg" viewBox="0 0 33.46 30.9">
				<path
            d="M32.7,4.8a7.81,7.81,0,0,1-4.1,2.8,61.42,61.42,0,0,0-5.7,2.3s-.1.3-.4,1.3-.9.6-.9.6v1.8a6.15,6.15,0,0,1,1.2,1.8,14.72,14.72,0,0,0,.8,1.7h.5c.5,0,.7,1.9.8,3.2s-1.1.8-1.1.8v3.2c0,1.9-.5,2.8-2.3,4.8s-4.7,1.8-4.7,1.8-3.1.1-4.7-1.8-2.3-3-2.3-4.8V21.1s-1.2.5-1.1-.8.3-3.2.8-3.2H10s.3-.6.8-1.7A9.62,9.62,0,0,1,12,13.6V11.8s-.8.4-.9-.6a2.26,2.26,0,0,0-.4-1.3A61.42,61.42,0,0,0,5,7.6,7.41,7.41,0,0,1,.9,4.8C.2,3.6,0,0,0,0H33.4A11.7,11.7,0,0,1,32.7,4.8Z" />
			</symbol>
			<symbol id="progressElement" class="uiBg" viewBox="0 0 409.31 10.48">
				<line id="progressbg" class="progressbg" x1="5" y1="5" x2="405" y2="5"></line>
			</symbol>
			<symbol id="doc" class="uiBg" viewBox="0 0 36.8 31.6">
				<path d="M0,31.6V21.9H36.8v9.7Zm15.1-6H5.2V28h9.9Zm16.5.3a.9.9,0,1,0,.9.9A.9.9,0,0,0,31.6,25.9Z" />
				<path d="M0,20.6V11.1H36.8v9.5Zm15.1-6H5.2v2.2h9.9Zm16.5.2a.9.9,0,1,0,.9.9A.9.9,0,0,0,31.6,14.8Z" />
				<path d="M0,9.5V0H36.8V9.5ZM15.1,3.6H5.2V5.9h9.9Zm16.5.2a.9.9,0,1,0,.9.9A.9.9,0,0,0,31.6,3.8Z" />
			</symbol>
		</defs>
		<g id="Progress">
			<g>
				<use width="33.46" height="30.9" transform="matrix(0.57, 0, 0, -0.57, 0, 17.49)" xlink:href="#personLeft" />
				<use width="409.31" height="10.48" transform="matrix(0.57, 0, 0, -0.57, 28.35, 13.39)"
            xlink:href="#progressElement" />
				<use width="36.8" height="31.6" transform="matrix(0.58, 0, 0, -0.58, 272.2, 18.38)" xlink:href="#doc" />
			</g>
		</g>
	</symbol>
	<symbol id="upSymbol" viewBox="0 0 32.21 41.62">
		<g>
			<path d="M2.71,26H9.55V38.55a2.93,2.93,0,0,0,2.78,3.07h7.13a2.94,2.94,0,0,0,2.78-3.07V26h6.84L15.89,8.8Z" />
			<rect width="32.21" height="3.41" />
		</g>
	</symbol>
	<symbol id="downSymbol" viewBox="0 0 32.21 41.62">
		<g>
			<path
          d="M29.51,15.62H22.66V3.08A2.94,2.94,0,0,0,19.88,0H12.76A2.94,2.94,0,0,0,10,3.08V15.62H3.14l13.18,17.2Z" />
			<rect y="38.21" width="32.21" height="3.41" />
		</g>
	</symbol>
	<symbol id="resultCard" viewBox="0 0 278.13 85.49">
		<g>
			<rect width="278.13" height="85.49" />
		</g>
	</symbol>
	<symbol id="resultCardMob" viewBox="0 0 88.1 65.79">
		<g>
			<rect width="88.1" height="65.79" />
		</g>
	</symbol>
	<symbol id="downloadRc1" viewBox="0 0 66.93 13.85">
		<g>
			<text transform="translate(0 10.52)" class="rtext">DOWNLOAD</text>
		</g>
	</symbol>
	<symbol id="uploadRc2" viewBox="0 0 46.73 13.85">
		<g>
			<text transform="translate(0 10.52)" class="rtext">UPLOAD</text>
		</g>
	</symbol>
	<symbol id="pingSymbol" viewBox="0 0 14.28 14.28">
		<g>
			<path
          d="M13.92.64a.55.55,0,0,0-.65.13L12.06,2A7.21,7.21,0,0,0,9.79.52a7,7,0,0,0-5.42,0,7,7,0,0,0-3.8,3.8,7,7,0,0,0,0,5.54,7.23,7.23,0,0,0,1.52,2.28,7.25,7.25,0,0,0,2.28,1.53,6.89,6.89,0,0,0,2.77.56,7.12,7.12,0,0,0,5.5-2.57.31.31,0,0,0,.07-.21.23.23,0,0,0-.09-.19L11.35,10a.36.36,0,0,0-.24-.09.27.27,0,0,0-.21.11,4.61,4.61,0,0,1-1.67,1.37,4.68,4.68,0,0,1-2.09.48,4.75,4.75,0,0,1-3.36-1.39A4.84,4.84,0,0,1,2.76,9a4.68,4.68,0,0,1-.38-1.85A4.63,4.63,0,0,1,2.76,5.3,4.74,4.74,0,0,1,5.3,2.76a4.72,4.72,0,0,1,5.09.9L9.1,4.94A.54.54,0,0,0,9,5.58.56.56,0,0,0,9.52,6h4.17a.61.61,0,0,0,.42-.17.57.57,0,0,0,.17-.42V1.19a.56.56,0,0,0-.36-.55Z"
          style="fill: #FF5A02" />
		</g>
	</symbol>
	<symbol id="pingRc3" viewBox="0 0 28.43 13.85">
		<g>
			<text transform="translate(0 10.52)" class="rtext">PING</text>
		</g>
	</symbol>
	<symbol id="jitterRc3" viewBox="0 0 39.95 13.85">
		<text class="rtext" transform="translate(0 9.64)">JITTER</text>
	</symbol>
	<symbol id="downResultC1" viewBox="0 0 53.35 39.8">
		<text id="downResult" transform="translate(0 20.07)" class="rtextnum">---</text>
		<text x="0" y="35" class="rtextmbms">Mbps</text>
	</symbol>
	<symbol id="upResultC2" viewBox="0 0 53.35 39.8">
		<text id="upRestxt" transform="translate(0 20.07)" class="rtextnum">---</text>
		<text x="0" y="36.09" class="rtextmbms">Mbps</text>
	</symbol>
	<symbol id="pingResultC3" viewBox="0 0 40.01 39.79">
		<text transform="translate(0 20.07)" id="pingResult" class="rtextnum">--</text>
		<text x="0" y="35" class="rtextmbms">ms</text>
	</symbol>
	<symbol id="jitterResultC3" viewBox="0 0 21.99 39.79">
		<text id="jitterDesk" transform="translate(2.33 20.07)" class="rtextnum">--</text>
		<text x="2" y="35" xml:space="preserve" class="rtextmbms">ms</text>
	</symbol>
	<symbol style="fill: url(#gradient)" id="graphc1" viewBox="0 0 200 100">
		<polygon opacity="0.15"
        points="0,50 0,46 10,43 20,39 30,36 40,33 50,31 60,30 70,30 80,31 90,33 100,36 110,39 120,43 130,46 130,50"
        class="line"></polygon>
	</symbol>
	<symbol style="fill: url(#gradient)" id="graphc2" viewBox="0 0 200 100">
		<polygon opacity="0.15"
        points="0,50 0,46 10,43 20,39 30,36 40,33 50,31 60,30 70,30 80,31 90,33 100,36 110,39 120,43 130,46 130,50"
        class="line2"></polygon>
	</symbol>
	<symbol id="jitterMob" viewBox="0 0 58.1 35.77">
		<text id="pingMobres" transform="translate(11.07 18.05)" class="rtextnum">--</text>
		<text x="-8" y="33.46" class="rtextmbms">Jitter</text>
		<text id="JitterResultMon" x="17" y="33.46" class="jitter-Mob">--</text>
		<text id="JitterResultms" x="36" y="33.46" class="rtextmbms">ms</text>
	</symbol>
	<symbol id="settings" viewBox="0 0 100 125">
		<rect fill="transparent" x="0" y="25" width="100" height="50" />
		<path d="M36.43,29.64,9.29,50,36.43,70.36v6.78L2.5,56.79V43.21L36.43,22.86Z" />
		<path d="M63.57,70.36,90.71,50,63.57,29.64V22.86L97.5,43.21V56.79L63.57,77.14Z" />
		<circle cx="29.64" cy="50" r="6.79" />
		<circle cx="50" cy="50" r="6.79" />
		<circle cx="70.36" cy="50" r="6.79" />
	</symbol>
	<symbol id="playButton" style="fill: #eaeaea" viewBox="0 0 191.255 191.255">
		<rect width="180" height="90" rx="10" ry="10" class="startButton" />
		<text class="buttonTxt" x="90" y="60">Start</text>
	</symbol>
	<symbol id="introProgress" viewBox="0 0 409.31 10.48">
		<line x1="5" y1="5" x2="405" y2="5"></line>
	</symbol>
	<symbol id="ConnectError" viewBox="0 0 489.6 489.6">
			<g>
				<g>
					<path d="M179.6,235.6c-33.7,10.3-65.5,28.5-92.2,55.1l46.6,46.6c13.9-13.9,30.1-24.8,47.6-32.5L179.6,235.6z" />
					<path d="M175.8,109C111.3,122,49.9,153.4,0,203.3l46.6,46.6c37.5-37.5,83.1-61.9,131.2-73.7L175.8,109z" />
					<path d="M313.8,109l-2,67.3c48.1,11.8,93.7,36.2,131.2,73.7l46.6-46.6C439.8,153.4,378.3,122,313.8,109z" />
					<path d="M307.9,304.8c17.5,7.7,33.7,18.6,47.7,32.6l46.6-46.6c-26.6-26.6-58.5-44.9-92.2-55.2L307.9,304.8z" />
				</g>
				<circle cx="244.8" cy="403.2" r="40" />
				<g>
					<path d="M260.6,330.4h-31.7c-8.3,0-15.1-6.6-15.3-14.9L206,62.2c-0.3-8.6,6.7-15.8,15.3-15.8h47c8.6,0,15.6,7.1,15.3,15.8
                 l-7.7,253.3C275.7,323.8,268.9,330.4,260.6,330.4z" />
				</g>
			</g>
			<title>Network Error</title>
	</symbol>
	<symbol class="Your-IP" viewBox="0 0 300 299.12">
		<text id="YourIP" transform="translate(140 228) scale(.8 .8)">SpeedTest by OpenSpeedTest™️</text>
	</symbol>
	<symbol id="light" viewBox="0 0 512 512">
		<g>
			<path
          d="M256,108.936c-81.091,0-147.064,65.973-147.064,147.064S174.909,403.064,256,403.064S403.064,337.091,403.064,256
        S337.091,108.936,256,108.936z M256,370.383c-63.071,0-114.383-51.312-114.383-114.383c0-63.071,51.312-114.383,114.383-114.383
        c63.071,0,114.383,51.312,114.383,114.383C370.383,319.071,319.071,370.383,256,370.383z"
        />
			<path
          d="M256,83.708c9.024,0,16.34-7.316,16.34-16.34V16.34C272.34,7.316,265.024,0,256,0c-9.024,0-16.34,7.316-16.34,16.34
        v51.027C239.66,76.391,246.976,83.708,256,83.708z"
        />
			<path
          d="M256,428.292c-9.024,0-16.34,7.316-16.34,16.34v51.027c0,9.024,7.316,16.34,16.34,16.34c9.024,0,16.34-7.316,16.34-16.34
        v-51.027C272.34,435.609,265.024,428.292,256,428.292z"
        />
			<path
          d="M111.062,134.171c6.38,6.381,16.727,6.381,23.109,0c6.381-6.38,6.381-16.727,0-23.109L98.089,74.981
        c-6.38-6.381-16.727-6.381-23.109,0c-6.381,6.38-6.381,16.727,0,23.109L111.062,134.171z"
        />
			<path
          d="M400.938,377.829c-6.38-6.381-16.727-6.38-23.109,0c-6.381,6.38-6.381,16.727,0,23.109l36.081,36.082
        c6.38,6.382,16.727,6.382,23.109,0c6.382-6.38,6.382-16.727,0-23.109L400.938,377.829z"
        />
			<path
          d="M83.708,256c0-9.024-7.316-16.34-16.34-16.34H16.34C7.316,239.66,0,246.976,0,256c0,9.024,7.316,16.34,16.34,16.34
        h51.027C76.391,272.34,83.708,265.024,83.708,256z"
        />
			<path
          d="M495.66,239.66h-51.027c-9.024,0-16.34,7.316-16.34,16.34c0,9.024,7.316,16.34,16.34,16.34h51.027
        c9.024,0,16.34-7.316,16.34-16.34C512,246.976,504.684,239.66,495.66,239.66z"
        />
			<path
          d="M111.062,377.829l-36.081,36.082c-6.381,6.382-6.381,16.727,0,23.109c6.38,6.382,16.727,6.383,23.109,0l36.081-36.082
        c6.381-6.381,6.381-16.727,0-23.109C127.79,371.447,117.443,371.447,111.062,377.829z"
        />
			<path
          d="M400.938,134.171l36.081-36.082c6.382-6.381,6.382-16.727,0-23.109c-6.38-6.381-16.727-6.381-23.109,0l-36.081,36.082
        c-6.381,6.381-6.381,16.727,0,23.109C384.21,140.552,394.557,140.553,400.938,134.171z"
        />
		</g>
		<rect  fill="none" width="512" cursor="pointer" pointer-events="visible" height="512"></rect>
		</symbol>
		<symbol id="dark" viewBox="0 0 1024 1024">
			<path
        d="M524.8 938.666667h-4.266667a439.893333 439.893333 0 0 1-313.173333-134.4 446.293333 446.293333 0 0 1-11.093333-597.333334 432.213333 432.213333 0 0 1 170.666666-116.906666 42.666667 42.666667 0 0 1 45.226667 9.386666 42.666667 42.666667 0 0 1 10.24 42.666667 358.4 358.4 0 0 0 82.773333 375.893333 361.386667 361.386667 0 0 0 376.746667 82.773334 42.666667 42.666667 0 0 1 54.186667 55.04A433.493333 433.493333 0 0 1 836.266667 810.666667a438.613333 438.613333 0 0 1-311.466667 128z"
      />
		</symbol>
		<g id="resultsData">
			<svg class="Desktop" viewBox="0 0 586 346">
				<title id="title1">HTML5 Network Performance Estimation Tool. by OpenSpeedTest™</title>
				<g id="UI-Desk">
					<use id="mainGaugebg-Desk" class="main-Gaugebg" xlink:href="#mainGaugebg" x="10.28" y="36.11" width="273.94" height="245.39"></use>
					<use id="mainGaugeBlue-Desk" class="main-GaugeBlue" xlink:href="#mainGaugeBlue" x="10.28" y="36.11" width="273.94" height="245.39"></use>
					<use id="mainGaugeWhite-Desk" class="main-GaugeWhite" xlink:href="#mainGaugeWhite" x="10.28" y="36.11" width="273.94" height="245.39"></use>
					<use xlink:href="#resultCard" class="Cards" x="307.4" y="31" width="278.1" height="85.5">
						<title id="title1">The download speed is how fast you can pull data from the server to you in the form of images, videos, text and more. Activities such as listening to music on Spotify, downloading large files or streaming videos on Netflix all require you to download data.</title>
					</use>
					<use xlink:href="#resultCard" class="Cards" x="307.4" y="129.3" width="278.1" height="85.5">
						<title id="title1">The upload speed is how fast you send data from you to others in the form of images, videos, text and more. Activities such as uploading to YouTube or Sending email, playing live games like PubG, Voice and Video calling a friend require fast upload speeds for you to send data to someone else’s server.</title>
					</use>
					<use xlink:href="#resultCard" class="Cards" x="307.4" y="228.5" width="278.1" height="85.5">
						<title id="title1">Ping "Round-trip time" is more or less well defined as the network delay from point A to B and back. This is the sum of all encoding, queueing, processing, decoding, and propagation delays in both directions. Essentially, it's the delay when A may be expecting an answer from B for a request that requires very little processing. A fast ping means a more responsive connection, especially in applications where timing is everything (like video games). Ping is measured in Milliseconds (ms). Jitter is simply the difference in Ping "Round-trip time" . In other words, jitter is measuring time difference in packet inter-arrival time. Jitter helps diagnose internet connection stability. The higher the jitter value, the worse the stability of the connection.</title>
					</use>
					<use id="downSymbolDesk" xlink:href="#downSymbol" class="Desktop" x="133" y="99" width="32.21" height="41.62"></use>
					<use id="upSymbolDesk" xlink:href="#upSymbol" class="Desktop" x="133" y="99" width="32.21" height="41.62"></use>
					<use id="ConnectErrorDesk" xlink:href="#ConnectError" class="ConnectError" x="135" y="107.8" width="32.21" height="41.62"></use>
					<use class="oDo-Meter" xlink:href="#oDoMeter" x="10.28" y="36.11" width="273.94" height="245.39"></use>
					<use xlink:href="#progressBar" x="1" y="295" width="293.53" height="18.38"></use>
					<use id="progressStatus-Desk" class="intro-Progress" xlink:href="#introProgress" x="29" y="295" width="234" height="21"></use>
					<use xlink:href="#downloadRc1" x="335.05" y="50.28" width="67" height="16">
						<title id="title1">Download speed is measured in megabits per second (Mbps).</title>
					</use>
					<use xlink:href="#uploadRc2" x="345.33" y="145.2" width="47" height="16">
						<title id="title1">Upload speed is measured in megabits per second (Mbps).</title>
					</use>
					<use xlink:href="#pingSymbol" x="351.4" y="243.8" width="14.3" height="14.4"></use>
					<use xlink:href="#pingSymbol" x="481.3" y="244.6" width="14.33" height="14.4"></use>
					<use xlink:href="#pingRc3" x="367.01" y="244.68" width="28" height="16">
						<title id="title1">Ping is measured in Milliseconds (ms).</title>
					</use>
					<use xlink:href="#jitterRc3" x="495.61" y="246.3" width="39.95" height="13.85">
						<title id="title1">Jitter is measured in Milliseconds (ms).</title>
					</use>
					<use xlink:href="#upSymbol" class="Symbol" x="329" y="146.5" width="11.8" height="13.9"></use>
					<use xlink:href="#downSymbol" class="Symbol" x="318.7" y="51.9" width="11.8" height="13.8"></use>
					<use xlink:href="#graphc2" x="427.84" y="134" width="200" height="135">
						<title id="title1">Shows you real-time network traffic graph for Upload!</title>
					</use>
					<use xlink:href="#graphc1" x="427.84" y="35" width="200" height="135">
						<title id="title1">Shows you real-time network traffic graph for Download!</title>
					</use>
					<use xlink:href="#downResultC1" x="298" y="67.21" width="200" height="45.1">
						<title id="title1">Your download speed!</title>
					</use>
					<use xlink:href="#upResultC2" x="298" y="162.13" width="200" height="45.1">
						<title id="title1">Your upload speed!</title>
					</use>
					<use xlink:href="#pingResultC3" x="303.73" y="261.55" width="200" height="45.1">
						<title id="title1">Your ping!</title>
					</use>
					<use xlink:href="#jitterResultC3" x="420.04" y="262.17" width="200" height="45.1">
						<title id="title1">Your jitter!</title>
					</use>
					<use id="nightmode-UI" class="darkmode" onclick="toggleSkin()" xlink:href="#dark" x="10" y="25" width="30" height="30"></use>
					<use id="daymode-UI" class="darkmode" onclick="toggleSkin()" xlink:href="#light" x="10" y="25" width="30" height="30"></use>
				</g>
				<g id="intro-Desk">
					<use id="logo-Desk" xlink:href="#logo" x="97" y="95" width="100" height="79"></use>
					<text class="introText" text-anchor="middle" x="147" y="195">Network Speed Test</text>

					<use id="deskStart" class="deskStart" xlink:href="#mainGaugebg" x="10.28" y="36.11" width="273.94" height="245.39"></use>
					<use xlink:href="#resultCard" class="Cards" x="307.4" y="31" width="278.1" height="85.5"></use>
					<use xlink:href="#resultCard" class="Cards" x="307.4" y="228.5" width="278.1" height="85.5"></use>
					<use xlink:href="#resultCard" class="Cards" x="307.4" y="129.3" width="278.1" height="85.5"></use>
					<use xlink:href="#downloadRc1" x="335.05" y="50.28" width="67" height="16">
						<title id="title1">Download speed is measured in megabits per second (Mbps).</title>
					</use>
					<use xlink:href="#uploadRc2" x="345.33" y="145.2" width="47" height="16">
						<title id="title1">Upload speed is measured in megabits per second (Mbps).</title>
					</use>
					<use xlink:href="#pingSymbol" x="351.4" y="243.8" width="14.3" height="14.4"></use>
					<use xlink:href="#pingSymbol" x="481.3" y="244.6" width="14.33" height="14.4"></use>
					<use xlink:href="#pingRc3" x="367.01" y="244.68" width="28" height="16">
						<title id="title1">Ping is measured in Milliseconds (ms).</title>
					</use>
					<use xlink:href="#jitterRc3" x="495.61" y="246.3" width="39.95" height="13.85">
						<title id="title1">Jitter is measured in Milliseconds (ms).</title>
					</use>
					<use xlink:href="#upSymbol" class="Symbol" x="329" y="146.5" width="11.8" height="13.9"></use>
					<use xlink:href="#downSymbol" class="Symbol" x="318.7" y="51.9" width="11.8" height="13.8"></use>
					<use xlink:href="#graphc2" x="427.84" y="134" width="200" height="135">
						<title id="title1">Shows you real-time network traffic graph for Upload!</title>
					</use>
					<use xlink:href="#graphc1" x="427.84" y="35" width="200" height="135">
						<title id="title1">Shows you real-time network traffic graph for Download!</title>
					</use>
					<use xlink:href="#downResultC1" x="298" y="67.21" width="200" height="45.1">
						<title id="title1">Your download speed!</title>
					</use>
					<use xlink:href="#upResultC2" x="298" y="162.13" width="200" height="45.1">
						<title id="title1">Your upload speed!</title>
					</use>
					<use xlink:href="#pingResultC3" x="303.73" y="261.55" width="200" height="45.1">
						<title id="title1">Your ping!</title>
					</use>
					<use xlink:href="#jitterResultC3" x="420.04" y="262.17" width="200" height="45.1">
						<title id="title1">Your jitter!</title>
					</use>
					<use id="nightmode"  class="darkmode" onclick="toggleSkin()" xlink:href="#dark" x="10" y="25" width="30" height="30"></use>
					<use id="daymode"  class="darkmode" onclick="toggleSkin()" xlink:href="#light" x="10" y="25" width="30" height="30"></use>
					<use id="startButtonDesk" class="startButton" xlink:href="#playButton" x="125" y="300.6" width="50.2" height="50.2">
						<title id="title1">Click here to Run a Speed Test! Or Press "Enter"</title>
					</use>
					<use class="Desktop" id="ipDesk" xlink:href="#YourIP" x="7" y="70"></use>
				</g>
			</svg>
			<svg class="Mobile" viewBox="0 0 295.9 363.3">
				<title id="title1">HTML5 Network Performance Estimation Tool. by OpenSpeedTest™</title>
				<g id="UI-Mob">
					<use id="mainGaugebg-Mob" class="main-Gaugebg" xlink:href="#mainGaugebg" x="11.18" y="12" width="273.94" height="245.39"></use>
					<use id="mainGaugeBlue-Mob" class="main-GaugeBlue" xlink:href="#mainGaugeBlue" x="11.18" y="12" width="273.94" height="245.39"></use>
					<use id="mainGaugeWhite-Mob" class="main-GaugeWhite" xlink:href="#mainGaugeWhite" x="11.18" y="12" width="273.94" height="245.39"></use>
					<use xlink:href="#resultCardMob" class="Cards" x="1" y="297.52" width="88.1" height="65.8">
						<title id="title1">The download speed is how fast you can pull data from the server to you in the form of images, videos, text and more. Activities such as listening to music on Spotify, downloading large files or streaming videos on Netflix all require you to download data.</title>
					</use>
					<use xlink:href="#resultCardMob" class="Cards" x="104.1" y="297.52" width="88.1" height="65.8">
						<title id="title1">The upload speed is how fast you send data from you to others in the form of images, videos, text and more. Activities such as uploading to YouTube or Sending email, playing live games like PubG, Voice and Video calling a friend require fast upload speeds for you to send data to someone else’s server.</title>
					</use>
					<use xlink:href="#resultCardMob" class="Cards" x="207.1" y="297.52" width="88.1" height="65.8">
						<title id="title1">Ping "Round-trip time" is more or less well defined as the network delay from point A to B and back. This is the sum of all encoding, queueing, processing, decoding, and propagation delays in both directions. Essentially, it's the delay when A may be expecting an answer from B for a request that requires very little processing. A fast ping means a more responsive connection, especially in applications where timing is everything (like video games). Ping is measured in Milliseconds (ms). Jitter is simply the difference in Ping "Round-trip time" . In other words, jitter is measuring time difference in packet inter-arrival time. Jitter helps diagnose internet connection stability. The higher the jitter value, the worse the stability of the connection.</title>
					</use>
					<use id="upSymbolMob" xlink:href="#upSymbol" class="Mobile" x="134" y="73" width="32.21" height="41.62"></use>
					<use id="downSymbolMob" xlink:href="#downSymbol" class="Mobile" x="134" y="73" width="32.21" height="41.62"></use>
					<use id="ConnectErrorMob" xlink:href="#ConnectError" class="ConnectError" x="135.9" y="74.02" width="32.21" height="41.62"></use>
					<use class="oDo-Meter" xlink:href="#oDoMeter" x="11.18" y="12" width="273.94" height="245.39"></use>
					<use xlink:href="#progressBar" x="1.9" y="272.08" width="293.53" height="18.38"></use>
					<use id="progressStatus-Mob" class="intro-Progress" xlink:href="#introProgress" x="29" y="272" width="234.5" height="21.5"></use>
					<use xlink:href="#downloadRc1" x="22.36" y="301.63" width="60" height="15">
						<title id="title1">Download speed is measured in megabits per second (Mbps).</title>
					</use>
					<use xlink:href="#uploadRc2" x="237.51" y="301.64" width="42" height="15">
						<title id="title1">Upload speed is measured in megabits per second (Mbps).</title>
					</use>
					<use xlink:href="#pingRc3" x="143.88" y="301.72" width="26" height="15">
						<title id="title1">Ping is measured in Milliseconds (ms).</title>
					</use>
					<use xlink:href="#upSymbol" class="Symbol" x="221.8" y="303.42" width="12.3" height="10.6"></use>
					<use xlink:href="#downSymbol" class="Symbol" x="7.7" y="303.42" width="10.6" height="12.4"></use>
					<use xlink:href="#pingSymbol" x="126.8" y="303.32" width="12.5" height="12.4"></use>
					<use id="graphMob1" xlink:href="#graphc1" x="83.1" y="160.45" width="200" height="135">
						<title id="title1">Shows you real-time network traffic graph for Download!</title>
					</use>
					<use id="graphMob2" xlink:href="#graphc2" x="83.1" y="160.45" width="200" height="135">
						<title id="title1">Upload speed is measured in megabits per second (Mbps).</title>
					</use>
					<use xlink:href="#jitterMob" x="71.14" y="317.65" width="200" height="45.1">
						<title id="title1">Your ping! and Jitter</title>
					</use>
					<use xlink:href="#upResultC2" x="182" y="317.67" width="200" height="45.1">
						<title id="title1">Your upload speed!</title>
					</use>
					<use xlink:href="#downResultC1" x="-25" y="317.64" width="200" height="45.1">
						<title id="title1">Your download speed!</title>
					</use>
					<use id="nightmode-UI-Mob" class="darkmode" onclick="toggleSkin()" xlink:href="#dark" x="10" y="25" width="30" height="30"></use>
					<use id="daymode-UI-Mob" class="darkmode" onclick="toggleSkin()" xlink:href="#light" x="10" y="25" width="30" height="30"></use>
				</g>
				<g id="intro-Mob">
					<use id="nightmode-Mob"  class="darkmode" onclick="toggleSkin()" xlink:href="#dark" x="10" y="25" width="30" height="30"></use>
					<use id="daymode-Mob"  class="darkmode" onclick="toggleSkin()" xlink:href="#light" x="10" y="25" width="30" height="30"></use>
					<use id="logo-Mob" xlink:href="#logo" x="98" y="65" width="100" height="79"></use>
					<text class="introText" text-anchor="middle" x="148" y="165">Network Speed Test</text>

					<use id="deskStartMob" class="deskStart" xlink:href="#mainGaugebg" x="11.18" y="12" width="273.94" height="245.39"></use>
					<use id="startButtonMob" class="startButton" xlink:href="#playButton" x="125" y="280" width="50.2" height="50.2">
						<title id="title1">Click here to run a speed!</title>
					</use>
					<use class="Mobile" id="ipMob" xlink:href="#YourIP" x="11" y="49"></use>
				</g>
			</svg>
		</g>
		<linearGradient id="gradient" x1="0%" y1="0%" x2="0%" y2="100%">
			<stop offset="0%" stop-color="#FF8A3D" />
			<stop offset="100%" stop-color="#FF5A02" />
		</linearGradient>
		<radialGradient id="RadialGradient1">
			<stop offset="0%" stop-color="#FF8A3D" />
			<stop offset="100%" stop-color="#FF5A02" />
		</radialGradient>
	</svg>