<svg width="1709" height="1354" viewBox="0 0 1709 1354" fill="none" xmlns="http://www.w3.org/2000/svg">
<mask id="mask0_1101_62817" style="mask-type:alpha" maskUnits="userSpaceOnUse" x="0" y="0" width="1709" height="1354">
<rect width="1709" height="1354" fill="#D9D9D9"/>
</mask>
<g mask="url(#mask0_1101_62817)">
<path d="M1292 713.879L1386.72 384.844C1388.95 377.125 1381.2 369.82 1370.81 369.82H1200.37L1159.65 628.505L1118.93 369.82H948.489C938.097 369.82 930.35 377.125 932.583 384.844L1027.3 713.879L928.2 1078.15C926.105 1085.81 933.824 1093.03 944.161 1093.03H1115.82L1159.68 820.507L1203.54 1093.03H1375.19C1385.5 1093.03 1393.25 1085.84 1391.16 1078.15L1292.05 713.879H1292Z" fill="#FF5A02"/>
<path d="M228.115 252C356.217 252 431.089 304.377 431.089 407.255V940.422C431.089 1030.51 365.59 1093.06 228.115 1093.06H16.2919C7.30519 1093.06 0 1087.52 0 1080.68V264.377C0 257.541 7.30519 252 16.2919 252H228.115ZM243.387 399.013C243.387 379.551 232.553 369.82 210.858 369.82H184.752V975.184H209.866C232.029 975.184 243.359 965.453 243.359 946.018V399.013H243.387Z" fill="#FF5A02"/>
<path d="M899.144 516.557V701.723C899.144 708.559 891.839 714.1 882.852 714.1H669.072V965.867C669.072 985.329 679.409 995.06 699.616 995.06C716.873 995.06 725.722 986.459 725.722 969.616V757.132H882.852C891.839 757.132 899.144 762.673 899.144 769.509V968.127C899.144 1009.67 881.887 1041.84 846.932 1065.38C811.95 1088.95 762.688 1100.56 699.616 1100.56C563.629 1100.56 489.723 1046.31 489.723 947.921V536.405C489.723 418.944 559.191 363.204 698.623 363.204C838.056 363.204 899.64 414.45 899.144 516.585M669.072 494.091V623.544H724.757V494.091C724.757 474.629 715.88 464.897 698.651 464.897C679.437 464.897 669.596 474.629 669.099 494.091" fill="#FF5A02"/>
<path d="M1692.9 369.903L1614.86 369.82V266.417C1614.86 259.581 1607.55 254.04 1598.57 254.04H1464.01L1430.46 368.497C1430.22 369.351 1430.08 370.261 1430.08 371.143V962.751C1430.08 1004.29 1447.33 1036.46 1482.32 1060.01C1515.59 1082.45 1561.87 1094.02 1620.59 1095.1C1622.33 1095.15 1692.9 1095.1 1692.9 1095.1C1701.89 1095.1 1709.19 1089.64 1709.19 1082.8V977.334H1648.38C1626.22 977.334 1614.89 967.603 1614.89 948.141V487.254L1709.19 487.337V382.28C1709.19 375.444 1701.89 369.903 1692.9 369.903Z" fill="#FF5A02"/>
<path d="M1203.79 1153.76H1240.37C1257.04 1153.76 1269.15 1156.13 1276.67 1160.87C1284.2 1165.61 1287.97 1173.17 1287.97 1183.51C1287.97 1190.53 1286.32 1196.3 1283.04 1200.79C1279.76 1205.28 1275.35 1208.01 1269.89 1208.92V1209.72C1277.33 1211.38 1282.71 1214.49 1286.02 1219.04C1289.32 1223.59 1290.95 1229.65 1290.95 1237.21C1290.95 1247.93 1287.09 1256.28 1279.32 1262.29C1271.54 1268.3 1261.04 1271.31 1247.75 1271.31H1203.76V1153.73L1203.79 1153.76ZM1228.71 1200.32H1243.18C1249.93 1200.32 1254.84 1199.27 1257.84 1197.18C1260.85 1195.08 1262.39 1191.64 1262.39 1186.81C1262.39 1182.32 1260.74 1179.09 1257.46 1177.11C1254.18 1175.13 1248.94 1174.19 1241.83 1174.19H1228.73V1200.32H1228.71ZM1228.71 1220.11V1250.74H1244.94C1251.81 1250.74 1256.88 1249.42 1260.13 1246.8C1263.38 1244.18 1265.04 1240.15 1265.04 1234.72C1265.04 1224.97 1258.06 1220.09 1244.14 1220.09H1228.71V1220.11Z" fill="#FF5A02"/>
<path d="M1294.7 1181.41H1321.55L1338.53 1232C1339.99 1236.38 1340.98 1241.59 1341.51 1247.6H1342C1342.58 1242.08 1343.74 1236.87 1345.45 1232L1362.1 1181.41H1388.4L1350.36 1282.8C1346.88 1292.17 1341.89 1299.2 1335.44 1303.86C1328.99 1308.52 1321.44 1310.86 1312.81 1310.86C1308.57 1310.86 1304.43 1310.42 1300.35 1309.49V1290.02C1303.3 1290.71 1306.53 1291.07 1310 1291.07C1314.35 1291.07 1318.13 1289.75 1321.38 1287.1C1324.64 1284.45 1327.17 1280.43 1328.99 1275.08L1330.45 1270.67L1294.75 1181.41H1294.7Z" fill="#FF5A02"/>
<path d="M1436.09 1271.33V1153.76H1461.01V1271.33H1436.09Z" fill="#FF5A02"/>
<path d="M1510.58 1226.21V1271.31H1485.66V1153.73H1519.92C1535.88 1153.73 1547.71 1156.63 1555.37 1162.47C1563.04 1168.32 1566.87 1177.11 1566.87 1188.96C1566.87 1195.88 1564.97 1202.03 1561.16 1207.41C1557.36 1212.78 1551.95 1217.03 1545.01 1220.06C1562.71 1246.5 1574.23 1263.56 1579.58 1271.28H1551.93L1523.86 1226.18H1510.6L1510.58 1226.21ZM1510.58 1205.94H1518.63C1526.51 1205.94 1532.33 1204.62 1536.08 1202C1539.82 1199.38 1541.7 1195.25 1541.7 1189.63C1541.7 1184 1539.77 1180.09 1535.94 1177.72C1532.11 1175.35 1526.18 1174.19 1518.13 1174.19H1510.58V1205.94Z" fill="#FF5A02"/>
<path d="M1589.45 1271.33V1153.76H1614.37V1271.33H1589.45Z" fill="#FF5A02"/>
<path d="M1708.42 1238.67C1708.42 1249.28 1704.59 1257.63 1696.95 1263.75C1689.32 1269.87 1678.68 1272.93 1665.06 1272.93C1652.52 1272.93 1641.41 1270.56 1631.76 1265.85V1242.69C1639.7 1246.22 1646.4 1248.73 1651.91 1250.16C1657.42 1251.6 1662.44 1252.34 1666.99 1252.34C1672.45 1252.34 1676.64 1251.29 1679.59 1249.2C1682.54 1247.1 1683.97 1243.99 1683.97 1239.88C1683.97 1237.56 1683.34 1235.52 1682.04 1233.73C1680.74 1231.94 1678.87 1230.2 1676.36 1228.55C1673.85 1226.9 1668.78 1224.22 1661.12 1220.58C1653.92 1217.19 1648.55 1213.97 1644.96 1210.85C1641.38 1207.74 1638.51 1204.13 1636.36 1199.99C1634.21 1195.86 1633.14 1191.03 1633.14 1185.52C1633.14 1175.13 1636.66 1166.94 1643.72 1160.98C1650.78 1155.03 1660.51 1152.05 1672.94 1152.05C1679.06 1152.05 1684.88 1152.77 1690.42 1154.23C1695.96 1155.69 1701.78 1157.7 1707.84 1160.35L1699.79 1179.73C1693.51 1177.17 1688.32 1175.35 1684.24 1174.35C1680.16 1173.36 1676.11 1172.84 1672.14 1172.84C1667.43 1172.84 1663.82 1173.94 1661.28 1176.14C1658.75 1178.35 1657.51 1181.22 1657.51 1184.75C1657.51 1186.95 1658.03 1188.85 1659.02 1190.51C1660.01 1192.16 1661.67 1193.73 1663.87 1195.25C1666.08 1196.77 1671.37 1199.52 1679.67 1203.49C1690.67 1208.76 1698.19 1214.02 1702.27 1219.29C1706.35 1224.55 1708.39 1231.03 1708.39 1238.69L1708.42 1238.67Z" fill="#FF5A02"/>
</g>
</svg>
